<svg id="Layer_1" data-name="Layer 1" xmlns="http://www.w3.org/2000/svg" viewBox="0 0 153.176 61.412"><defs><style>.cls-1{fill:#e11a2c;}.cls-2{fill:#fff;}</style></defs><title>TAMKO Building Products LLC (logo) color reverse</title><rect x="7.101" y="7.101" width="129.771" height="34.399"/><path class="cls-1" d="M0,0V48.6H143.973V0ZM136.872,41.5H7.1V7.1H136.872Z"/><path class="cls-2" d="M0,61.236V59.69c.314-.133.345-.4.356-.692V54.755c-.011-.3-.042-.56-.356-.692V52.517H4.059a4.054,4.054,0,0,1,2.091.356,2.028,2.028,0,0,1,.889,1.852,1.8,1.8,0,0,1-1.412,1.953v.02c1.151.143,1.548,1.038,1.548,2.055a2.429,2.429,0,0,1-.753,1.964,3.426,3.426,0,0,1-2.238.519ZM3.148,55.9h.188c.618,0,.932-.133.932-.784s-.345-.783-.932-.783H3.148Zm0,3.53h.241c.68,0,.92-.264.92-.956,0-.672-.24-.936-.92-.936H3.148Z"/><path class="cls-2" d="M11.788,52.517h3.243v1.546c-.378.2-.346.529-.346.855v3.53a2.7,2.7,0,0,1-.858,2.31,3.6,3.6,0,0,1-2.374.651,3.6,3.6,0,0,1-2.374-.651,2.7,2.7,0,0,1-.858-2.31v-3.53c0-.326.032-.651-.3-.855V52.517h3.4v1.546c-.335.2-.3.529-.3.855V58.9a.558.558,0,1,0,1.108,0V54.918c-.01-.326.021-.651-.334-.855Z"/><path class="cls-2" d="M16.025,54.918c0-.326.031-.651-.3-.855V52.517h3.4v1.546c-.335.2-.3.529-.3.855v3.917c0,.326-.032.651.3.855v1.546h-3.4V59.69c.335-.2.3-.529.3-.855Z"/><path class="cls-2" d="M19.769,61.236V59.69c.335-.2.3-.529.3-.855V54.918c0-.326.032-.651-.3-.855V52.517h3.4v1.546c-.335.2-.3.529-.3.855v4.466h.272c.711,0,.7-.417.7-.966V57H26.3v4.232Z"/><path class="cls-2" d="M30.909,52.517a3.761,3.761,0,0,1,2.279.488,2.462,2.462,0,0,1,.806,2.188v3.265a2.492,2.492,0,0,1-.722,2.137,3.11,3.11,0,0,1-2.28.641H27.038V59.69c.314-.133.345-.4.356-.692V54.755c-.011-.3-.031-.56-.356-.692V52.517ZM30.187,59.4h.219c.607,0,.8-.214.8-.845V55.264c0-.631-.188-.845-.8-.845h-.219Z"/><path class="cls-2" d="M35.093,54.918c0-.326.031-.651-.3-.855V52.517h3.4v1.546c-.334.2-.3.529-.3.855v3.917c0,.326-.031.651.3.855v1.546h-3.4V59.69c.334-.2.3-.529.3-.855Z"/><path class="cls-2" d="M43.669,56.454h.022V54.918c0-.326.031-.651-.3-.855V52.517h2.866v1.546c-.335.2-.3.529-.3.855v6.318H43.241l-1.663-3.917h-.021v1.516c0,.326-.031.651.3.855v1.546H39.078V59.69c.335-.2.3-.529.3-.855V54.918c0-.326.031-.651-.3-.855V52.517h3.033Z"/><path class="cls-2" d="M53.711,55.549H51.023v-.193c0-.387.084-1.13-.533-1.13-.523,0-.565.478-.565.855v3.876a.547.547,0,0,0,.565.57c.617,0,.533-.743.533-1.14V58h-.481V56.3h3.169v4.161a5.1,5.1,0,0,1-3.346.946A3.734,3.734,0,0,1,48,60.829a2.718,2.718,0,0,1-.868-2.431V55.081a2.427,2.427,0,0,1,.743-2.055,3.665,3.665,0,0,1,2.364-.682,5.8,5.8,0,0,1,3.472,1.007Z"/><path class="cls-2" d="M58.387,54.918c0-.326.032-.651-.3-.855V52.517h3.65a4.246,4.246,0,0,1,2.416.458,2.754,2.754,0,0,1,.878,2.381v.691c0,1.659-.564,2.686-2.855,2.686H61.18c0,.428-.032.753.3.957v1.546h-3.4V59.69c.335-.2.3-.529.3-.855Zm2.793,1.974h.261c.827,0,.795-.458.795-1.272s.032-1.282-.795-1.282H61.18Z"/><path class="cls-2" d="M68.669,58.835c0,.326-.031.651.3.855v1.546h-3.4V59.69c.335-.2.3-.529.3-.855V54.918c0-.326.032-.651-.3-.855V52.517h3.88a4.459,4.459,0,0,1,2.165.346,2.089,2.089,0,0,1,.983,1.953c0,.956-.292,1.791-1.338,2.045v.021a1.254,1.254,0,0,1,1.171,1.454v.5c0,.3,0,.722.345.855v1.546h-3a7.944,7.944,0,0,1-.157-2.34c0-.692-.073-1.037-.836-1.058h-.115Zm0-2.737h.282c.607,0,.8-.3.8-.916,0-.559-.188-.864-.8-.864h-.282Z"/><path class="cls-2" d="M80.258,58.713c0,2.156-1.36,2.7-3.336,2.7s-3.337-.54-3.337-2.7V55.04c0-2.157,1.36-2.7,3.337-2.7s3.336.539,3.336,2.7Zm-3.881.132c0,.061-.031.682.545.682s.543-.621.543-.682V54.9c0-.061.032-.672-.543-.672s-.545.611-.545.672Z"/><path class="cls-2" d="M84.965,52.517a3.762,3.762,0,0,1,2.28.488,2.464,2.464,0,0,1,.806,2.188v3.265a2.492,2.492,0,0,1-.722,2.137,3.11,3.11,0,0,1-2.28.641H81.1V59.69c.314-.133.345-.4.356-.692V54.755c-.011-.3-.032-.56-.356-.692V52.517ZM84.243,59.4h.22c.607,0,.8-.214.8-.845V55.264c0-.631-.188-.845-.8-.845h-.22Z"/><path class="cls-2" d="M92.925,52.517h3.243v1.546c-.377.2-.346.529-.346.855v3.53a2.7,2.7,0,0,1-.858,2.31,4.654,4.654,0,0,1-4.748,0,2.7,2.7,0,0,1-.857-2.31v-3.53c0-.326.031-.651-.3-.855V52.517h3.4v1.546c-.334.2-.3.529-.3.855V58.9a.558.558,0,1,0,1.109,0V54.918c-.011-.326.021-.651-.335-.855Z"/><path class="cls-2" d="M100.655,55.193c0-.356.073-.967-.513-.967s-.512.611-.512.967V58.56c0,.356-.073.967.512.967s.513-.611.513-.967v-.987h2.7v2.91a5.231,5.231,0,0,1-3.012.926,4.166,4.166,0,0,1-2.761-.722,3.091,3.091,0,0,1-.743-2.574V55.081a2.441,2.441,0,0,1,.764-2.076,4.105,4.105,0,0,1,2.657-.661,6.283,6.283,0,0,1,3.095.946v2.422h-2.7Z"/><path class="cls-2" d="M103.909,52.517h7.729v3.937h-1.977V54.989c0-.4-.094-.61-.492-.621v4.467c0,.326-.031.651.3.855v1.546h-3.4V59.69c.334-.2.3-.529.3-.855V54.368c-.4.011-.492.224-.492.621v1.465h-1.976Z"/><path class="cls-2" d="M116.042,55.152c0-.386-.011-.926-.555-.926a.527.527,0,0,0-.544.58.626.626,0,0,0,.167.488,2.005,2.005,0,0,0,.785.346,7.925,7.925,0,0,1,2.134.774,1.613,1.613,0,0,1,.69.834,3.348,3.348,0,0,1,.209,1.2v.041c0,1.679-.764,2.92-3.431,2.92a5.293,5.293,0,0,1-3.252-.916V58.154h2.729a3.179,3.179,0,0,0,.084,1.088.575.575,0,0,0,.5.285c.377,0,.544-.356.544-.672,0-.895-.575-.966-1.349-1.149-1.694-.407-2.646-.8-2.646-2.686v-.194a2.093,2.093,0,0,1,.931-1.943,3.957,3.957,0,0,1,2.3-.539,5.657,5.657,0,0,1,3.3.915v2.056h-2.6Z"/><path class="cls-2" d="M123.113,61.236V59.69c.335-.2.3-.529.3-.855V54.918c0-.326.032-.651-.3-.855V52.517h3.4v1.546c-.335.2-.3.529-.3.855v4.466h.272c.711,0,.7-.417.7-.966V57h2.458v4.232Z"/><path class="cls-2" d="M130.235,61.236V59.69c.335-.2.3-.529.3-.855V54.918c0-.326.031-.651-.3-.855V52.517h3.4v1.546c-.335.2-.3.529-.3.855v4.466h.272c.711,0,.7-.417.7-.966V57h2.458v4.232Z"/><path class="cls-2" d="M141.3,55.193c0-.356.073-.967-.513-.967s-.512.611-.512.967V58.56c0,.356-.074.967.512.967s.513-.611.513-.967v-.987H144v2.91a5.231,5.231,0,0,1-3.012.926,4.164,4.164,0,0,1-2.761-.722,3.091,3.091,0,0,1-.743-2.574V55.081a2.441,2.441,0,0,1,.764-2.076,4.1,4.1,0,0,1,2.656-.661,6.283,6.283,0,0,1,3.1.946v2.422h-2.7Z"/><path class="cls-2" d="M11.417,9.979H35.054V20.562H29.189V17.994c0-1.287-.3-1.979-1.55-2.011V30.459c0,1.056-.1,2.111,1.323,2.77v5.014H17.508V33.229c1.423-.659,1.326-1.714,1.326-2.77V15.983c-1.254.032-1.551.724-1.551,2.011v2.568H11.417Z"/><path class="cls-2" d="M42.711,38.243h-10.1V33.229c1.325-.659,1.425-2.109,1.687-3.2L38.028,9.979H50.56l4.123,20.48c.165.891.494,2.475,1.484,2.77v5.014H45.052V33.229a1.509,1.509,0,0,0,1.024-1.548,3.28,3.28,0,0,0-.133-.826H41.688a3.589,3.589,0,0,0-.131.826,1.47,1.47,0,0,0,1.154,1.548Zm2.44-12.9L43.7,16.971h-.066l-1.385,8.376Z"/><path class="cls-2" d="M71.307,21.554h.068L74.342,9.979H85.158v5.013c-1.054.659-.955,1.715-.955,2.77v12.7c0,1.056-.1,2.111.955,2.77v5.014H74.836V33.229c1.056-.659.957-1.714.957-2.77V22.874h-.065L71.9,38.243h-2.77L65.107,22.874h-.066v7.585c0,1.056-.1,2.111.957,2.77v5.014H57.291V33.229c1.056-.659.956-1.714.956-2.77v-12.7c0-1.055.1-2.111-1.323-2.77V9.979H68.405Z"/><path class="cls-2" d="M104.427,22.743l4.154,8.244a4.02,4.02,0,0,0,1.98,2.242v5.014h-10.09V34.88c0-2.212-.331-2.673-1.288-4.618l-2.212-4.288h-.064v4.485c0,1.056-.1,2.111.957,2.77v5.014H87.144V33.229c1.057-.659.958-1.714.958-2.77v-12.7c0-1.055.1-2.111-.958-2.77V9.979h10.72v5.013c-1.056.659-.957,1.715-.957,2.77V21.39l2.077-3.264c1.452-2.375,1.487-2.574,1.487-3.7V9.979h9.561v5.013a3.344,3.344,0,0,0-1.846,1.682Z"/><path class="cls-2" d="M132.494,30.064c0,6.992-4.288,8.739-10.523,8.739s-10.52-1.747-10.52-8.739V18.158c0-6.99,4.289-8.74,10.52-8.74s10.523,1.75,10.523,8.74Zm-12.235.428c0,.2-.1,2.212,1.712,2.212s1.718-2.014,1.718-2.212V17.7c0-.2.1-2.178-1.718-2.178s-1.712,1.98-1.712,2.178Z"/><path class="cls-2" d="M152.027,3.941A3.239,3.239,0,1,1,148.84.707,3.236,3.236,0,0,1,152.027,3.941Zm-5.3-1.852a2.776,2.776,0,1,0,2.106-.922A2.73,2.73,0,0,0,146.725,2.089ZM149.7,5.831l-.715-1.6h-1.034v1.6h-.555V2.07h1.589a1.138,1.138,0,0,1,1.279,1.072,1,1,0,0,1-.724.968l.78,1.721Zm-.781-2.041c.47,0,.752-.253.752-.658,0-.366-.263-.592-.686-.592h-1.034V3.79Z"/></svg>